<?xml version="1.0" standalone="no"?>
<!DOCTYPE svg PUBLIC "-//W3C//DTD SVG 20010904//EN"
 "http://www.w3.org/TR/2001/REC-SVG-20010904/DTD/svg10.dtd">
<svg version="1.0" xmlns="http://www.w3.org/2000/svg"
 width="1080.000000pt" height="1350.000000pt" viewBox="0 0 1080.000000 1350.000000"
 preserveAspectRatio="xMidYMid meet">
<metadata>
Created by potrace 1.16, written by Peter Selinger 2001-2019
</metadata>
<g transform="translate(0.000000,1350.000000) scale(0.100000,-0.100000)"
fill="#000000" stroke="none">
<path d="M5417 10979 c-55 -13 -111 -44 -140 -78 -24 -29 -25 -30 -31 -8 -3
12 -6 37 -6 55 0 30 -2 32 -37 32 -21 0 -49 -3 -62 -7 l-23 -6 6 -236 c3 -130
9 -289 12 -353 l6 -118 63 0 62 0 -5 208 c-5 225 0 259 45 320 30 40 85 69
150 78 47 6 50 8 48 35 -1 16 -2 43 -3 59 -2 33 -14 36 -85 19z"/>
<path d="M6776 10920 c-118 -46 -185 -171 -152 -284 22 -73 62 -116 214 -228
73 -55 142 -114 152 -131 47 -76 9 -168 -75 -187 -115 -27 -310 71 -405 202
l-27 37 -42 -43 -42 -43 40 -51 c138 -174 427 -272 576 -194 108 55 162 187
120 289 -27 65 -65 103 -201 204 -137 102 -184 153 -184 202 0 40 26 85 63
107 90 56 289 -13 398 -137 l32 -37 38 43 37 44 -21 29 c-30 40 -110 100 -183
136 -123 62 -247 77 -338 42z"/>
<path d="M4495 10889 c-108 -35 -197 -122 -228 -223 -19 -64 -13 -191 12 -258
79 -206 329 -285 549 -174 44 22 133 105 132 123 -1 5 -19 22 -42 39 l-40 31
-40 -43 c-103 -111 -319 -111 -402 0 -22 28 -43 76 -34 76 2 0 127 25 278 55
151 30 276 55 278 55 12 0 -11 97 -35 145 -77 160 -254 231 -428 174z m185
-99 c47 -13 106 -63 130 -110 24 -46 47 -37 -200 -85 -102 -19 -195 -38 -207
-41 -21 -4 -23 -1 -23 35 0 140 152 242 300 201z"/>
<path d="M3733 10656 c-97 -32 -188 -109 -215 -183 -7 -18 -15 -33 -18 -33 -4
0 -14 18 -23 40 -18 46 -27 48 -90 20 l-45 -20 194 -442 c107 -242 196 -443
198 -446 7 -6 116 40 116 49 0 4 -32 78 -70 164 -39 87 -68 160 -66 162 2 3
15 -1 28 -8 13 -8 57 -13 103 -14 71 0 88 4 147 33 198 97 261 301 156 505
-30 61 -95 124 -156 154 -66 32 -190 42 -259 19z m182 -125 c93 -42 150 -135
150 -246 -1 -78 -15 -113 -66 -164 -46 -46 -86 -63 -160 -69 -59 -4 -73 -1
-118 23 -122 67 -175 223 -116 342 56 112 199 165 310 114z"/>
<path d="M5968 10375 c-53 -30 -64 -95 -24 -142 53 -61 156 -21 156 62 0 68
-74 112 -132 80z"/>
<path d="M7475 10330 c-128 -32 -236 -142 -271 -280 -41 -161 45 -332 210
-414 82 -41 204 -48 288 -16 79 29 155 101 199 186 31 63 34 75 34 159 0 82
-3 97 -33 157 -75 154 -268 248 -427 208z m203 -141 c183 -91 179 -342 -8
-443 -164 -89 -366 45 -347 229 10 95 66 178 149 219 72 36 128 34 206 -5z"/>
<path d="M2925 10200 c-106 -42 -196 -132 -235 -237 -61 -161 33 -374 200
-452 46 -22 69 -26 145 -26 82 0 97 3 155 32 85 42 155 112 194 193 27 56 31
76 31 145 0 69 -5 90 -32 147 -38 80 -107 154 -178 188 -69 34 -207 39 -280
10z m211 -121 c89 -42 154 -144 154 -239 0 -69 -25 -124 -77 -171 -105 -95
-251 -88 -343 17 -115 131 -91 301 53 384 65 38 148 41 213 9z"/>
<path d="M8383 10005 c-18 -8 -55 -35 -83 -61 l-51 -47 -37 36 c-21 20 -42 37
-47 37 -6 0 -24 -17 -41 -37 l-31 -37 44 -41 43 -40 -107 -116 c-60 -64 -153
-165 -208 -224 l-100 -108 49 -42 48 -43 201 217 c110 119 204 217 209 219 4
2 40 -26 80 -62 l72 -66 38 37 39 38 -78 71 -78 72 30 32 c80 85 166 77 216
-22 15 -30 24 -38 37 -33 9 4 29 12 45 17 35 13 34 33 -2 90 -67 105 -193 155
-288 113z"/>
<path d="M2132 9917 c-23 -23 -42 -47 -42 -52 0 -5 159 -165 353 -356 l352
-348 45 45 45 44 -355 355 -355 355 -43 -43z"/>
<path d="M8674 9582 l-60 -51 -35 44 c-19 24 -37 44 -42 45 -4 0 -23 -15 -43
-33 l-36 -33 36 -43 c20 -24 36 -44 36 -46 0 -2 -76 -68 -170 -146 -138 -116
-175 -152 -195 -193 -38 -75 -31 -128 28 -214 30 -44 107 -102 137 -102 9 0
25 19 37 44 l22 44 -23 6 c-13 3 -40 24 -60 46 -40 45 -47 89 -20 128 9 13 86
82 172 154 l156 130 31 -33 c16 -19 46 -54 66 -78 l36 -44 37 29 c20 16 36 34
36 40 0 5 -28 43 -61 83 l-61 73 38 31 c21 18 49 41 61 52 l23 20 -43 49 -43
48 -60 -50z"/>
<path d="M2083 9360 c-157 -51 -272 -236 -244 -392 22 -126 98 -224 219 -281
59 -28 77 -32 152 -32 73 0 93 4 142 28 76 37 160 123 200 204 25 51 32 81 36
144 l5 79 -57 0 -56 0 0 -48 c0 -79 -27 -139 -89 -203 -45 -46 -67 -61 -113
-74 -58 -17 -111 -14 -155 9 -22 11 -18 17 103 181 69 94 147 199 172 234 l46
64 -25 20 c-13 11 -51 33 -85 49 -83 39 -168 45 -251 18z m168 -112 c22 -6 39
-15 39 -20 0 -5 -59 -89 -132 -188 -124 -170 -133 -179 -150 -164 -55 50 -74
164 -39 239 54 119 162 170 282 133z"/>
<path d="M8899 9113 c-31 -32 -147 -158 -258 -280 l-201 -222 27 -55 c15 -31
32 -56 38 -56 5 0 133 14 284 30 151 17 275 29 277 28 1 -2 -38 -48 -88 -103
-49 -55 -135 -151 -191 -213 l-100 -114 26 -54 c15 -30 30 -54 35 -54 14 0
686 80 719 85 l33 6 -25 49 c-14 28 -31 50 -38 50 -6 0 -140 -16 -296 -35
-157 -19 -286 -33 -289 -31 -3 4 238 272 366 408 l36 38 -27 47 c-22 41 -30
48 -54 46 -15 -2 -146 -16 -290 -33 -144 -16 -267 -30 -273 -30 -7 0 64 82
157 182 92 99 184 200 204 222 l37 41 -27 53 -26 52 -56 -57z"/>
<path d="M1616 8784 c-22 -49 -24 -59 -13 -73 8 -9 92 -106 188 -216 96 -110
181 -209 189 -219 14 -18 8 -19 -240 -12 -140 4 -278 9 -307 12 l-52 6 -30
-61 c-17 -33 -31 -62 -31 -64 0 -2 147 -7 328 -11 180 -3 355 -9 388 -12 l62
-6 26 57 c14 32 26 61 26 66 0 7 -406 481 -495 577 -10 11 -17 3 -39 -44z"/>
<path d="M1439 7966 c-105 -28 -191 -104 -231 -205 -17 -43 -22 -77 -22 -146
0 -108 20 -160 88 -233 51 -54 104 -84 191 -107 73 -19 115 -19 182 -1 169 45
285 226 270 422 -4 59 -29 136 -52 162 -2 3 -83 -34 -92 -42 -2 -2 7 -29 18
-62 34 -96 13 -204 -55 -281 -47 -53 -104 -82 -162 -83 l-42 0 69 273 c38 149
69 277 69 283 0 13 -96 34 -149 33 -20 0 -57 -6 -82 -13z m111 -113 c0 -8 -99
-412 -105 -431 -11 -32 -117 61 -141 124 -30 78 -3 194 58 251 34 32 107 63
151 63 20 0 37 -3 37 -7z"/>
<path d="M9408 7885 c-21 -19 -38 -38 -38 -41 0 -3 18 -26 40 -51 76 -87 106
-233 62 -304 -24 -39 -65 -66 -107 -71 l-29 -3 -31 130 c-36 150 -63 212 -111
254 -95 84 -248 52 -303 -62 -56 -116 -2 -324 102 -387 l30 -18 -43 -12 c-36
-10 -41 -14 -37 -33 3 -12 9 -39 12 -59 6 -32 10 -37 29 -33 11 3 119 27 239
55 119 27 235 59 256 70 49 24 108 93 121 139 34 122 -18 313 -113 416 l-42
45 -37 -35z m-278 -175 c33 -17 58 -73 84 -184 36 -149 37 -143 -29 -151 -68
-9 -103 4 -149 56 -81 89 -83 247 -3 279 30 12 74 12 97 0z"/>
<path d="M1200 7160 c-123 -26 -249 -128 -305 -245 -45 -97 -55 -168 -55 -422
l0 -233 471 0 470 0 -3 273 c-4 254 -6 276 -27 336 -46 124 -145 225 -269 271
-65 25 -210 35 -282 20z m194 -135 c101 -17 206 -108 247 -213 20 -51 22 -76
23 -237 l1 -180 -27 1 c-16 1 -174 2 -352 3 -291 1 -325 3 -328 17 -2 9 -1 94
2 188 6 167 7 173 38 237 51 107 140 172 256 189 51 8 66 7 140 -5z"/>
<path d="M9265 7039 c-154 -9 -281 -18 -283 -18 -2 -1 -2 -29 0 -63 3 -60 4
-63 28 -61 14 1 111 5 217 9 169 6 198 5 237 -10 74 -28 113 -85 131 -190 6
-36 8 -38 37 -32 17 3 44 6 61 6 29 0 29 1 23 41 -11 67 -45 136 -86 173 -36
32 -37 35 -17 40 12 3 37 6 55 6 35 0 38 8 26 83 l-7 37 -71 -1 c-39 -1 -197
-10 -351 -20z"/>
<path d="M9203 6551 c-159 -54 -246 -191 -246 -383 0 -78 3 -94 32 -153 18
-37 39 -69 46 -71 7 -3 32 7 54 21 l40 27 -25 45 c-32 53 -42 148 -24 222 23
95 116 181 196 181 l30 0 -32 -282 c-18 -156 -29 -287 -24 -292 16 -16 182 -1
232 21 70 32 141 103 174 176 24 53 28 75 28 152 1 100 -17 153 -74 225 -86
109 -269 159 -407 111z m256 -141 c70 -35 121 -118 121 -197 0 -91 -60 -183
-142 -218 -42 -17 -88 -20 -88 -5 0 16 40 373 46 408 6 37 12 39 63 12z"/>
<path d="M1514 5727 c-72 -28 -108 -52 -159 -108 -60 -67 -79 -120 -79 -219 0
-64 6 -99 23 -142 25 -65 96 -149 141 -168 16 -7 30 -16 30 -19 0 -4 -75 -33
-167 -65 -93 -32 -172 -62 -176 -66 -9 -8 22 -120 33 -120 12 0 925 322 933
329 9 9 -22 101 -37 107 -7 3 -31 -2 -54 -10 -23 -8 -42 -14 -42 -12 0 2 8 18
17 37 25 50 29 165 8 231 -31 92 -98 173 -180 216 -73 38 -205 42 -291 9z
m221 -118 c55 -15 127 -91 144 -152 42 -149 -31 -271 -186 -312 -153 -41 -286
55 -300 216 -13 136 105 256 252 258 28 1 68 -4 90 -10z"/>
<path d="M8673 5182 c-72 -163 -133 -303 -135 -311 -2 -8 17 -23 48 -37 l52
-23 108 245 c59 135 111 247 115 250 13 7 274 -113 271 -125 -1 -6 -41 -98
-88 -204 -47 -105 -88 -197 -91 -204 -5 -12 65 -53 90 -53 9 0 50 82 107 210
50 116 94 210 97 210 2 0 62 -25 133 -57 118 -51 128 -58 120 -77 -4 -12 -49
-112 -98 -222 -49 -111 -93 -211 -96 -222 -6 -17 0 -25 33 -42 22 -11 46 -20
53 -20 11 0 285 598 276 604 -10 7 -850 376 -856 376 -4 0 -66 -134 -139 -298z"/>
<path d="M2051 4926 c-6 -25 -11 -47 -11 -50 0 -3 22 -15 50 -27 94 -41 170
-156 170 -259 0 -62 -24 -123 -62 -158 l-25 -22 -118 192 c-66 106 -134 217
-153 246 l-33 53 -40 -23 c-53 -30 -111 -93 -145 -160 -24 -45 -28 -65 -29
-138 0 -72 4 -94 27 -143 38 -80 115 -158 189 -192 54 -24 70 -27 147 -23 105
4 171 31 249 102 158 143 147 392 -24 558 -44 42 -126 88 -158 88 -18 0 -25
-8 -34 -44z m39 -566 c0 -11 -56 -23 -106 -22 -191 2 -289 243 -156 384 l25
27 119 -190 c65 -105 118 -195 118 -199z"/>
<path d="M8435 4719 c-21 -28 -34 -54 -29 -58 5 -5 82 -63 171 -129 189 -142
218 -178 218 -273 0 -45 -6 -66 -30 -104 -64 -103 -147 -137 -237 -97 -25 11
-117 74 -204 139 -88 66 -164 122 -171 126 -12 7 -90 -89 -80 -99 32 -33 365
-271 406 -291 110 -55 232 -26 321 74 63 71 93 143 94 226 0 37 1 67 1 67 1 0
16 -11 35 -25 19 -14 37 -25 41 -25 8 0 69 80 69 91 0 5 -520 400 -557 422 -7
4 -26 -13 -48 -44z"/>
<path d="M7795 4256 c-146 -36 -331 -184 -375 -301 -41 -110 -16 -214 79 -335
72 -91 391 -469 402 -475 5 -4 29 11 53 31 l45 37 -34 41 -33 41 63 1 c89 1
174 44 248 124 135 146 133 343 -6 482 -74 73 -124 93 -237 93 -86 0 -101 -3
-154 -30 -105 -53 -188 -154 -204 -247 -4 -22 -11 -40 -16 -41 -5 -1 -27 24
-49 56 -35 49 -42 66 -45 120 -3 55 0 67 27 109 57 89 187 170 299 185 l43 6
-6 51 c-4 28 -9 54 -12 59 -6 9 -28 8 -88 -7z m293 -405 c80 -41 126 -116 126
-206 0 -75 -25 -127 -90 -184 -124 -109 -294 -82 -366 58 -60 115 -18 249 98
317 82 48 158 53 232 15z"/>
<path d="M2390 4060 c-162 -94 -354 -204 -427 -246 l-132 -77 46 -41 c26 -23
50 -40 55 -38 5 1 162 90 350 197 187 108 342 194 344 192 2 -2 -67 -168 -153
-370 l-156 -368 33 -34 c19 -19 42 -37 52 -41 11 -3 136 61 358 186 188 106
343 190 346 187 3 -2 -66 -168 -152 -367 l-156 -364 48 -42 c27 -24 51 -43 54
-44 5 0 379 869 387 900 2 9 -18 34 -49 61 l-53 46 -340 -193 c-187 -106 -342
-191 -344 -189 -1 2 65 166 148 364 l151 360 -48 45 c-26 25 -51 46 -57 45 -5
0 -143 -76 -305 -169z"/>
<path d="M7232 3568 c-34 -20 -51 -36 -48 -44 3 -8 84 -147 181 -309 l176
-296 47 27 c26 15 51 30 55 34 7 6 -326 584 -352 612 -3 3 -30 -8 -59 -24z"/>
<path d="M6960 3409 c-24 -11 -46 -21 -47 -23 -2 -2 30 -88 71 -192 40 -104
77 -206 80 -226 14 -80 -31 -167 -109 -210 -62 -34 -122 -44 -169 -28 -65 21
-96 71 -185 293 -46 114 -84 207 -86 207 -12 0 -115 -44 -115 -49 0 -22 176
-442 196 -469 69 -90 128 -117 238 -110 123 8 232 74 279 168 l25 50 17 -45
c10 -25 23 -45 31 -45 13 0 104 37 104 42 0 2 -58 149 -129 328 -75 189 -135
326 -142 327 -8 1 -34 -7 -59 -18z"/>
<path d="M3867 3359 c-11 -6 -25 -26 -33 -45 -33 -79 51 -154 127 -114 29 16
51 67 44 101 -12 56 -88 87 -138 58z"/>
<path d="M4610 2973 c-48 -230 -64 -277 -110 -323 -47 -47 -121 -67 -187 -52
-48 11 -49 10 -59 -68 l-7 -50 83 0 c74 0 89 3 137 30 l54 31 -7 -36 c-13 -69
-13 -68 46 -81 30 -7 56 -11 58 -9 2 2 12 43 23 92 70 317 129 591 129 595 0
7 -82 28 -108 28 -16 0 -23 -21 -52 -157z"/>
<path d="M5882 3094 c-82 -22 -202 -108 -202 -145 0 -4 18 -21 40 -39 l39 -31
31 34 c61 70 191 103 291 74 58 -17 129 -79 148 -129 12 -32 42 -24 -298 -79
l-263 -42 5 -49 c23 -193 198 -324 398 -296 125 17 224 89 274 200 69 153 23
347 -105 450 -80 64 -233 86 -358 52z m358 -446 c-14 -50 -65 -107 -115 -129
-51 -24 -154 -25 -201 -3 -43 20 -81 59 -105 107 -15 28 -17 38 -7 42 11 3
108 19 388 64 43 6 45 5 48 -18 2 -14 -1 -43 -8 -63z"/>
<path d="M5077 3059 c-61 -14 -157 -71 -157 -92 0 -5 14 -27 31 -48 l31 -39
31 23 c51 38 97 52 167 52 83 -1 132 -18 183 -64 40 -36 76 -100 77 -135 0
-18 -7 -19 -172 -12 -95 3 -226 9 -292 13 l-119 6 5 -84 c7 -145 75 -251 197
-308 49 -23 68 -26 156 -26 90 1 106 3 158 30 70 35 130 97 165 173 23 50 27
70 27 157 0 87 -3 107 -26 155 -48 102 -141 174 -257 199 -61 13 -150 13 -205
0z m345 -415 c13 -4 15 -11 8 -35 -61 -213 -379 -212 -440 2 -6 19 -10 38 -10
42 0 9 409 0 442 -9z"/>
<path d="M7690 2843 c-74 -26 -86 -129 -18 -157 41 -18 74 -9 104 27 29 34 27
79 -4 108 -19 19 -60 29 -82 22z"/>
</g>
</svg>
